<?xml version="1.0" encoding="utf-8"?>
<!-- Svg Vector Icons : http://www.onlinewebfonts.com/icon -->
<!DOCTYPE svg PUBLIC "-//W3C//DTD SVG 1.1//EN" "http://www.w3.org/Graphics/SVG/1.1/DTD/svg11.dtd">
<svg version="1.1" xmlns="http://www.w3.org/2000/svg" xmlns:xlink="http://www.w3.org/1999/xlink" x="0px" y="0px" viewBox="0 0 1000 1000" enable-background="new 0 0 1000 1000" xml:space="preserve">
<metadata> Svg Vector Icons : http://www.onlinewebfonts.com/icon </metadata>
<g><path d="M966.3,824.4c-15.8,19.1-34.5,28.6-56.1,28.6H89.8c-22.1,0-41-9.5-56.5-28.6C17.8,805.3,10,782.1,10,754.8V244.5c0-26.9,7.8-49.8,23.3-68.9C48.8,156.5,67.7,147,89.8,147h816.9c21.6,0,40.5,9.5,56.5,28.6c16,19.1,24.9,42.1,26.8,68.9v510.3C990,782.1,982.1,805.3,966.3,824.4z M936.8,253.1c0-31.5-25.5-57-57-57H120.2c-31.5,0-57,25.5-57,57v493.8c0,31.5,25.5,57,57,57h759.7c31.5,0,57-25.5,57-57V253.1z M858.7,658.6H577.7c-3.8,0-7.3-1.1-10.6-3.2c-3.3-2.1-6-4.9-8.1-8.5c-2.1-3.5-3.2-6.9-3.2-10.2c0-5.7,2.2-10.7,6.7-15.2c4.5-4.5,9.5-6.7,15.2-6.7h281.1c5.2,0,10.1,2.2,14.8,6.7c4.7,4.5,7.1,9.4,7.1,14.8c0,5.4-2.4,10.5-7.1,15.2C868.9,656.2,863.9,658.6,858.7,658.6z M865.8,544.8c-2.8,0.9-5.2,1.4-7.1,1.4H577.7c-5.6,0-10.7-2.2-15.2-6.7c-4.5-4.5-6.7-9.5-6.7-15.2c0-1.4,0.2-2.9,0.7-4.6c0.5-1.6,1.1-3.2,1.8-4.6c0.7-1.4,1.5-2.8,2.5-4.2l4.2-2.8c0.9-1.4,2.1-2.5,3.5-3.2s2.9-1.3,4.6-1.8c1.6-0.5,3.2-0.7,4.6-0.7h281.1c5.2,0,10.1,2.4,14.8,7.1c4.7,4.7,7.1,9.7,7.1,14.8C880.6,533.7,875.7,540.5,865.8,544.8z M869,423.6c-3.5,2.1-6.9,3.2-10.2,3.2H577.7c-3.8,0-7.3-1.1-10.6-3.2c-3.3-2.1-6-4.8-8.1-8.1c-2.1-3.3-3.2-6.8-3.2-10.6c0-2.4,0.6-4.9,1.8-7.8c1.2-2.8,2.8-5.2,4.9-7.1c2.1-1.9,4.5-3.5,7.1-4.9c2.6-1.4,5.3-2.1,8.1-2.1h281.1c5.2,0,10.1,2.4,14.8,7.1c4.7,4.7,7.1,9.7,7.1,14.8c0,3.8-1.1,7.3-3.2,10.6C875.3,418.8,872.5,421.5,869,423.6z M496.4,721.2c-2.2,1-4.6,1.6-7.2,1.6H137c-0.3,0-0.5-0.2-0.5-0.5v-0.2c-5.8,0.3-10.9-1.6-15.2-6.3c-4.6-4.9-6.9-10.1-6.9-15.6c0.6-47.6,16.3-90.4,47-128.3c18.4-22.6,41.8-40,70-52.2c-7.4-5.5-14.3-11.8-20.7-18.8c-6.4-7-12.1-14.5-17-22.4c-15.4-25-21.8-52.2-19.3-81.5c2.4-29.9,13.2-56.8,32.2-80.6c9.2-10.4,19.9-19.4,32.2-27c12.3-7.6,25.2-13.3,38.7-16.9c13.5-3.7,27.5-5.3,41.9-5c14.4,0.3,28.4,2.9,41.9,7.8c27.6,10.4,50.3,27.8,68.2,52.2c16.6,22.6,24.9,48.9,24.9,78.8v0.9c0,6.7-0.6,14.7-1.8,23.8c-3.1,17.7-9.5,34.2-19.3,49.5c-9.8,15.3-21.8,28.4-35.9,39.4c31.9,14.7,58.6,37,80.1,66.9c11.7,15.9,20.6,33.6,26.7,53.1c6.1,19.6,9.2,39.7,9.2,60.5c0,6.1-2.2,11.3-6.5,15.6C503.7,718.8,500.2,720.3,496.4,721.2z M399.9,448.3c0-0.6,0.3-1.5,0.9-2.8l0.9-0.9v-0.9c1.2-3,2.1-5.2,2.8-6.4c0.6-3.1,1.2-6,1.8-8.7c0.6-2.8,1.2-5.6,1.8-8.7V419c0.6-1.8,0.9-3,0.9-3.7v-2.7v-3.7v-1.8v-9.2l-0.9-3.7c0-3-0.5-6-1.4-8.7c-0.9-2.8-1.7-5.6-2.3-8.7c-0.6-1.2-1.5-3.3-2.8-6.4v-1.8l-0.9-1.8c-0.6,0-0.9-0.3-0.9-0.9c-2.5-5.5-5.5-10.4-9.2-14.7c0-0.6-0.3-1.2-0.9-1.8l-0.9-0.9l-0.9-0.9c-1.8-2.4-3.7-4.6-5.5-6.4c-0.6-1.2-1.5-2.3-2.8-3.2c-1.2-0.9-2.5-1.7-3.7-2.3c0-0.6-0.3-1.1-0.9-1.4c-0.6-0.3-1.2-0.8-1.8-1.4l-0.9-0.9l-0.9-0.9l-1.8-0.9l-2.8-1.8c-1.2-0.6-2.5-1.4-3.7-2.3c-1.2-0.9-2.2-1.7-2.8-2.3c-1.2-0.6-2.3-1.1-3.2-1.4c-0.9-0.3-1.7-0.8-2.3-1.4L352,320l-0.9-0.9c-1.2,0-2.2-0.3-2.8-0.9c-5.5-1.8-11.4-3.3-17.5-4.6c-0.6,0-1.2-0.1-1.8-0.5c-0.6-0.3-1.2-0.5-1.8-0.5h-8.3c-5.5-0.6-11.4-0.6-17.5,0h-0.9l-4.6,0.9l-7.4,1.8c-1.2,0.6-2.5,1.2-3.7,1.8h-1.8c-1.2,0.6-2.5,0.9-3.7,0.9c0,0.6-0.6,0.9-1.8,0.9l-0.9,0.9h-0.9l-7.4,3.7c-2.5,1.2-4.9,2.8-7.4,4.6c-1.2,0.6-2.5,1.5-3.7,2.7l-1.8,0.9l-0.9,0.9c-1.2,1.2-2.5,2.1-3.7,2.7c-3.7,3.7-7.4,7.6-11.1,11.9l-0.9,0.9v0.9c-0.6,0.6-1.2,1.2-1.8,1.8c-1.2,1.8-2.8,4-4.6,6.4c-0.6,1.2-1.2,2.6-1.8,4.1c-0.6,1.5-1.2,2.9-1.8,4.1l-0.9,0.9c-0.6,0.6-0.9,1.2-0.9,1.8c0,0.6-0.2,1.1-0.5,1.4c-0.3,0.3-0.5,0.8-0.5,1.4c-2.5,6.1-4,10.7-4.6,13.7l-1.8,9.2v3.7c-0.6,6.1-0.6,12.2,0,18.3v3.7c0.6,1.8,0.9,3.4,0.9,4.6c0,1.2,0.3,2.4,0.9,3.7c0.6,2.4,1.4,4.9,2.3,7.3c0.9,2.4,1.7,5.2,2.3,8.2l0.9,0.9l1.8,3.7l3.7,7.3c1.8,2.4,3.4,4.9,4.6,7.3l0.9,0.9l0.9,0.9c0.6,0.6,0.9,1.2,0.9,1.8l11.1,11c1.2,1.2,2.8,2.4,4.6,3.7v0.9h0.9l1.8,1.8c1.2,0.6,2.1,1.2,2.8,1.8c2.4,1.2,4.9,2.6,7.4,4.1c2.4,1.5,4.9,2.9,7.4,4.1h1.8l1.8,0.9c1.2,0.6,2.4,1.2,3.7,1.8h1.8c1.2,0.6,2.4,0.9,3.7,0.9c2.4,1.2,5.2,2.1,8.3,2.7h3.7c7.4,0.6,13.5,0.9,18.4,0.9c1.2,0,3.4-0.3,6.4-0.9h1.8h3.7c3.1-0.6,6-1.4,8.7-2.3c2.8-0.9,5.7-2,8.8-3.2c0.6,0,1.2-0.1,1.8-0.5c0.6-0.3,1.2-0.5,1.8-0.5c0.6-0.6,1.4-1.1,2.3-1.4c0.9-0.3,1.8-0.8,2.8-1.4c0.9-0.6,1.7-0.9,2.3-0.9c2.4-1.8,5.2-3.7,8.3-5.5c0.6-0.6,1.5-1.2,2.8-1.8l1.8-0.9l0.9-0.9l3.7-3.7c0.6,0,1.2-0.3,1.8-0.9c0.6-0.6,1.2-1.4,1.8-2.3c0.6-0.9,1.2-1.7,1.8-2.3c2.4-1.8,4.6-4,6.5-6.4v-0.9l1.8-1.8c0.6-1.2,1.4-2.4,2.3-3.7c0.9-1.2,1.7-2.4,2.3-3.7l1.8-3.7C397.7,450.8,398.6,449.5,399.9,448.3z M466.6,677.3c-0.3-1.8-0.5-3-0.5-3.7c-1.8-9.8-4.6-19.2-8.3-28.4c0-0.6-0.3-1.7-0.9-3.2c-0.6-1.5-1.2-2.6-1.8-3.2l0.9,0.9c-1.2-1.8-1.8-3-1.8-3.7c-1.2-2.4-2.3-4.7-3.2-6.9c-0.9-2.1-2-4.1-3.2-6c-1.2-1.2-2.2-2.6-2.8-4.1c-0.6-1.5-1.4-2.9-2.3-4.1c-0.9-1.2-2-2.4-3.2-3.7l-3.7-5.5c0-0.6-0.3-1.1-0.9-1.4c-0.6-0.3-0.9-0.8-0.9-1.4c-5.5-6.7-11.7-12.8-18.4-18.3c-1.8-1.8-3.7-3.3-5.5-4.6c0-0.6-0.3-0.9-0.9-0.9l-0.9-0.9c-3.7-2.4-6.8-4.6-9.2-6.4c-7.4-4.9-14.7-9.2-22.1-12.8h-0.9l-1.8-0.9h-0.9c-1.8-0.6-3.4-1.2-4.6-1.8c-3.7-1.2-7.7-2.4-12-3.7c-4.3-1.2-8.9-2.4-13.8-3.7c-1.2,0-2.3-0.1-3.2-0.5c-0.9-0.3-2-0.5-3.2-0.5h-0.9h-0.9c-9.8-1.2-18.7-1.8-26.7-1.8c-4.3,0.6-9.2,1.2-14.7,1.8h-1.8c-1.2,0-2.3,0.2-3.2,0.5c-0.9,0.3-2,0.5-3.2,0.5c-2.5,0.6-5.2,1.2-8.3,1.8c-3.1,0.6-6,1.4-8.8,2.3s-5.7,2-8.8,3.2c-0.6,0-1.5,0.3-2.8,0.9c-1.2,0.6-2.2,1.2-2.8,1.8h-0.9c-0.6,0-1.2,0.3-1.8,0.9l-11.1,5.5c-3.1,1.8-6.3,3.8-9.7,6c-3.4,2.1-6.9,4.4-10.6,6.9l-0.9,0.9l-1.8,1.8c-0.6,0.6-1.4,1.2-2.3,1.8c-0.9,0.6-1.7,1.2-2.3,1.8c-0.6,0.6-1.5,1.4-2.8,2.3c-1.2,0.9-2.3,2-3.2,3.2c-0.9,1.2-1.7,2.1-2.3,2.7l-5.5,4.6c-1.2,1.8-2.5,3.7-3.7,5.5l-2.8,2.7l0.9-1.8c0,0.6-0.5,1.5-1.4,2.7c-0.9,1.2-1.7,2.1-2.3,2.7c-4.9,6.7-9.2,14.1-12.9,22c-1.2,2.4-2.5,4.6-3.7,6.4c0,0.6-0.2,1.1-0.5,1.4c-0.3,0.3-0.5,0.8-0.5,1.4c-0.6,1.2-1.1,2.3-1.4,3.2c-0.3,0.9-0.8,2.1-1.4,3.7c-0.6,1.5-0.9,2.9-0.9,4.1c-3.1,8.6-5.2,17.1-6.4,25.7v1.8c0,0.1-0.1,0.2-0.1,0.3h305.7C466.8,678.8,466.8,678.4,466.6,677.3z M373.1,558.2c1.2,0.6,2.1,0.9,2.8,0.9H375L373.1,558.2z"/></g>
</svg>